#!OML:ASF Y:\EmotionMaleHayes\Project 1\Capture day 1\Session 1\Male1.ASF
:FULLY-SPECIFIED
:DEGREES
205
root -0.510104 15.445 1.00301 -36.4306 83.4667 -48.5325
lowerback 25.8499 1.44679 0.369995
upperback 9.32738 2.74637 1.1401
thorax -4.03779 1.62577 0.22575
lowerneck -26.4511 3.47582 1.50471
upperneck 14.4751 4.99351 -3.85163
head 8.96574 1.98099 -0.826395
rclavicle 3.01159e-014 9.36773e-015
rhumerus -32.9813 22.3981 -86.5518
rradius 76.4108
rwrist -14.8915
rhand -29.2369 -31.2742
rfingers 7.12502
rthumb -2.58046 -61.2384
lclavicle 3.01159e-014 9.36773e-015
lhumerus -42.1326 -18.88 95.4471
lradius 72.3612
lwrist 13.0119
lhand -43.5155 -38.5645
lfingers 7.12502
lthumb -16.3547 -9.23412
rfemur -27.9414 -0.651451 30.1425
rtibia 59.1423
rfoot 329.364 -6.02631
rtoes -15.8802
lfemur -26 9.77268 -14.5265
ltibia 85.0494
lfoot 151.518 -57.8968
ltoes -0.388384
206
root -0.101383 15.4198 0.995011 -40.4323 82.8074 -52.6135
lowerback 25.9346 1.52296 1.07435
upperback 9.25479 3.02272 1.34549
thorax -4.13877 1.76382 -0.0365722
lowerneck -27.2547 3.51522 1.81771
upperneck 14.8809 4.97655 -4.01511
head 9.25166 1.95407 -0.92596
rclavicle -1.1455e-014 1.80646e-014
rhumerus -28.3741 22.3881 -85.7696
rradius 76.8484
rwrist -13.676
rhand -29.4167 -30.5203
rfingers 7.12502
rthumb -2.75415 -60.4822
lclavicle -1.1455e-014 1.80646e-014
lhumerus -45.1413 -16.9171 94.7254
lradius 72.6246
lwrist 15.6097
lhand -44.043 -38.5693
lfingers 7.12502
lthumb -16.8625 -9.28141
rfemur -25.4634 -0.476106 30.8023
rtibia 57.8131
rfoot 328.903 -5.76336
rtoes -16.1586
lfemur -31.2288 9.67509 -13.6844
ltibia 81.3242
lfoot 163.266 -35.2245
ltoes -1.63265
207
root 0.317874 15.4067 0.99741 -40.7767 82.496 -53.144
lowerback 25.7996 1.7142 1.23979
upperback 9.12865 3.29276 1.38172
thorax -4.20504 1.88946 -0.166578
lowerneck -27.7128 3.50689 2.09018
upperneck 15.0589 4.89338 -4.14755
head 9.39753 1.90665 -1.02407
rclavicle -1.14208e-014 -7.0817e-015
rhumerus -23.9948 22.0217 -85.2445
rradius 77.0673
rwrist -12.1514
rhand -29.3041 -29.0309
rfingers 7.12502
rthumb -2.64541 -58.9943
lclavicle -1.14208e-014 -7.0817e-015
lhumerus -48.5537 -15.6859 93.8994
lradius 73.4027
lwrist 18.3422
lhand -44.5645 -38.4324
lfingers 7.12502
lthumb -17.3646 -9.18806
rfemur -23.0471 -0.346088 30.869
rtibia 56.402
rfoot 328.317 -5.56835
rtoes -15.589
lfemur -36.4923 9.48851 -13.388
ltibia 78.4099
lfoot 168.447 -11.7724
ltoes -3.3138
208
root 0.735467 15.4037 1.00368 -42.1675 82.1673 -54.7718
lowerback 25.6278 1.91011 1.55632
upperback 8.94741 3.60327 1.44839
thorax -4.30529 2.03362 -0.360493
lowerneck -28.0999 3.3601 2.28007
upperneck 15.2913 4.64866 -4.25432
head 9.5429 1.78254 -1.12773
rclavicle 9.69075e-015 -1.03368e-014
rhumerus -20.2502 21.0432 -85.103
rradius 77.6458
rwrist -10.2503
rhand -28.7631 -26.9133
rfingers 7.12502
rthumb -2.12296 -56.8825
lclavicle 9.69075e-015 -1.03368e-014
lhumerus -52.1063 -15.1576 93.1174
lradius 74.2896
lwrist 20.4476
lhand -45.2219 -38.0724
lfingers 7.12502
lthumb -17.9972 -8.88505
rfemur -20.6207 -0.348431 31.1411
rtibia 54.935
rfoot 327.817 -5.79288
rtoes -16.1637
lfemur -41.7797 9.32656 -12.8475
ltibia 76.6294
lfoot 167.82 -10.4757
ltoes -5.68626
209
root 1.18689 15.4136 0.992818 -40.9736 81.6408 -53.2824
lowerback 25.8395 2.21036 1.86198
upperback 8.90016 4.05699 1.37846
thorax -4.428 2.25462 -0.749675
lowerneck -28.7262 3.16679 2.32256
upperneck 15.7294 4.36323 -4.19718
head 9.79116 1.64463 -1.15644
rclavicle 2.69353e-014 1.41137e-014
rhumerus -17.0004 19.9802 -85.2218
rradius 78.642
rwrist -8.68549
rhand -29.6177 -25.4626
rfingers 7.12502
rthumb -2.94825 -55.422
lclavicle 2.69353e-014 1.41137e-014
lhumerus -55.6026 -15.1868 92.4286
lradius 74.9741
lwrist 21.3479
lhand -45.8302 -38.053
lfingers 7.12502
lthumb -18.5824 -8.9206
rfemur -17.1805 -0.4912 30.9887
rtibia 52.8597
rfoot 327.632 -5.56585
rtoes -16.8126
lfemur -45.8519 9.52277 -12.4078
ltibia 75.9351
lfoot 167.233 -10.1538
ltoes -6.01833
210
root 1.63652 15.4264 0.983474 -39.9353 81.4221 -51.9781
lowerback 26.0742 2.50577 1.9066
upperback 8.76039 4.44259 1.3663
thorax -4.6832 2.43283 -0.916569
lowerneck -29.011 2.9653 2.43548
upperneck 16.0028 4.09201 -4.37563
head 9.93436 1.49655 -1.28206
rclavicle -3.85642e-014 -1.16786e-014
rhumerus -14.2948 19.1799 -85.3582
rradius 79.9036
rwrist -7.66317
rhand -30.3681 -27.3277
rfingers 7.12502
rthumb -3.67291 -57.2758
lclavicle -3.85642e-014 -1.16786e-014
lhumerus -59.1297 -15.6889 92.1081
lradius 75.4355
lwrist 21.2707
lhand -46.2888 -38.3713
lfingers 7.12502
lthumb -19.0235 -9.28162
rfemur -13.7943 -0.806224 30.5678
rtibia 50.7516
rfoot 327.493 -5.42976
rtoes -17.8577
lfemur -49.7631 9.448 -12.0912
ltibia 75.7411
lfoot 166.236 -9.74254
ltoes -5.24071
211
root 2.09231 15.4409 0.973932 -39.5927 81.0679 -51.4679
lowerback 26.2741 2.87433 2.02915
upperback 8.47164 4.93779 1.44996
thorax -5.08498 2.65336 -1.06329
lowerneck -28.9995 2.68971 2.49795
upperneck 16.2312 3.7451 -4.56162
head 10.0086 1.31426 -1.41768
rclavicle 4.22417e-014 4.63168e-014
rhumerus -12.4403 18.596 -85.5377
rradius 81.3064
rwrist -6.39717
rhand -31.7526 -27.8596
rfingers 7.12502
rthumb -5.00982 -57.7804
lclavicle 4.22417e-014 4.63168e-014
lhumerus -62.8047 -16.7687 92.2609
lradius 75.6102
lwrist 20.5904
lhand -46.5918 -39.3492
lfingers 7.12502
lthumb -19.3149 -10.2884
rfemur -10.5179 -0.900769 30.3948
rtibia 48.6156
rfoot 327.578 -5.6645
rtoes -20.2249
lfemur -53.5745 9.47531 -11.5379
ltibia 76.0336
lfoot 165.631 -9.30557
ltoes -4.20315
212
root 2.56745 15.4541 0.963228 -39.8273 80.4395 -51.7272
lowerback 26.1691 3.32967 2.38443
upperback 8.10988 5.5922 1.59498
thorax -5.39869 2.94667 -1.30769
lowerneck -28.9632 2.2679 2.24931
upperneck 16.5559 3.24208 -4.38822
head 10.093 1.08425 -1.40135
rclavicle 2.82274e-014 -3.18055e-015
rhumerus -11.1947 18.4533 -85.587
rradius 83.4385
rwrist -7.20127
rhand -32.6971 -28.8015
rfingers 7.12502
rthumb -5.92181 -58.6987
lclavicle 2.82274e-014 -3.18055e-015
lhumerus -66.5077 -18.279 92.7743
lradius 75.5586
lwrist 19.0305
lhand -46.7442 -41.0136
lfingers 7.12502
lthumb -19.4613 -11.9675
rfemur -7.16495 -0.83505 30.4453
rtibia 45.9107
rfoot 328.271 -5.52673
rtoes -21.9348
lfemur -56.8821 9.90685 -10.6368
ltibia 77.5741
lfoot 165.739 -9.16458
ltoes -3.78532
213
root 3.06106 15.4716 0.946685 -39.0412 79.806 -51.1137
lowerback 25.7531 3.89849 2.75309
upperback 7.73265 6.37563 1.6555
thorax -5.55421 3.30251 -1.66384
lowerneck -28.9319 1.71155 1.88638
upperneck 16.8951 2.56081 -4.05099
head 10.1749 0.785819 -1.33752
rclavicle 1.80894e-014 -3.4191e-014
rhumerus -10.2856 18.6967 -85.4261
rradius 85.3486
rwrist -8.9062
rhand -33.7389 -28.3547
rfingers 7.12502
rthumb -6.92749 -58.2214
lclavicle 1.80894e-014 -3.4191e-014
lhumerus -70.2085 -20.1867 93.5534
lradius 75.5966
lwrist 16.8484
lhand -46.7962 -42.1448
lfingers 7.12502
lthumb -19.5113 -13.1038
rfemur -3.78037 -0.687318 30.2214
rtibia 42.8117
rfoot 329.392 -4.83858
rtoes -22.6467
lfemur -60.0789 10.5748 -9.94487
ltibia 79.4273
lfoot 165.482 -8.99955
ltoes -5.57923
214
root 3.56665 15.5051 0.920681 -36.7566 79.3688 -49.0545
lowerback 25.472 4.5542 2.96884
upperback 7.22051 7.21977 1.54137
thorax -5.90473 3.67526 -2.15409
lowerneck -28.9163 1.07271 1.43809
upperneck 17.2983 1.76693 -3.57626
head 10.2823 0.447489 -1.22941
rclavicle 2.0276e-014 4.37326e-015
rhumerus -9.57668 19.198 -85.0104
rradius 87.0935
rwrist -11.4148
rhand -35.3404 -28.5669
rfingers 7.12502
rthumb -8.47326 -58.3769
lclavicle 2.0276e-014 4.37326e-015
lhumerus -74.0455 -22.3753 94.6673
lradius 75.6466
lwrist 14.6807
lhand -46.537 -42.4626
lfingers 7.12502
lthumb -19.2621 -13.3966
rfemur -0.564224 -0.383989 29.4956
rtibia 39.7469
rfoot 330.754 -3.60889
rtoes -21.9768
lfemur -62.8386 11.2907 -9.73728
ltibia 82.5278
lfoot 170.485 14.9629
ltoes -4.91681
215
root 4.0835 15.5586 0.895754 -34.4702 78.9261 -46.9422
lowerback 25.2103 5.15409 2.96207
upperback 6.88681 7.95181 1.46486
thorax -6.09678 4.00521 -2.43639
lowerneck -29.4259 0.52 0.875259
upperneck 17.7983 1.14076 -3.11372
head 10.5258 0.172755 -1.08166
rclavicle -6.24184e-014 1.31198e-014
rhumerus -8.42677 20.2135 -84.1363
rradius 88.676
rwrist -14.0126
rhand -36.2682 -29.1609
rfingers 7.12502
rthumb -9.36864 -58.9327
lclavicle -6.24184e-014 1.31198e-014
lhumerus -77.4065 -24.0962 95.7726
lradius 75.5574
lwrist 12.7535
lhand -45.8318 -42.4849
lfingers 7.12502
lthumb -18.5839 -13.3526
rfemur 2.66508 0.0260643 28.7041
rtibia 36.5583
rfoot 332.742 -2.40496
rtoes -20.9236
lfemur -64.8796 12.1866 -9.61853
ltibia 86.5219
lfoot 177.096 38.906
ltoes -2.94151
216
root 4.62124 15.621 0.871804 -30.9451 78.5948 -43.5858
lowerback 24.7705 5.83045 2.67427
upperback 6.54552 8.69178 1.20546
thorax -6.21407 4.3427 -2.74033
lowerneck -29.7477 0.01176 0.713874
upperneck 18.3506 0.458067 -2.85094
head 10.7666 -0.121564 -1.08296
rclavicle 3.65764e-014 3.49861e-014
rhumerus -7.72059 21.051 -83.367
rradius 90.2681
rwrist -16.322
rhand -36.7884 -29.6054
rfingers 7.12502
rthumb -9.8705 -59.354
lclavicle 3.65764e-014 3.49861e-014
lhumerus -80.9121 -25.872 96.8485
lradius 75.6519
lwrist 11.3526
lhand -44.9368 -42.5903
lfingers 7.12502
lthumb -17.7229 -13.3779
rfemur 5.85992 0.336905 27.4349
rtibia 33.2567
rfoot 335.563 -1.26812
rtoes -20.7277
lfemur -66.3086 13.1651 -9.9198
ltibia 89.1248
lfoot 190.741 62.4076
ltoes -4.65563
217
root 5.17963 15.6832 0.842946 -26.2363 78.5493 -39.1742
lowerback 23.8688 6.44921 2.11287
upperback 6.26638 9.27586 0.806707
thorax -6.05417 4.62112 -2.93285
lowerneck -29.9707 -0.403348 0.716312
upperneck 18.8161 -0.144196 -2.69566
head 10.9646 -0.37745 -1.13717
rclavicle 1.19271e-015 -6.75868e-014
rhumerus -7.58394 21.9176 -82.6516
rradius 92.1193
rwrist -18.2043
rhand -37.4851 -28.9638
rfingers 7.12502
rthumb -10.5426 -58.6793
lclavicle 1.19271e-015 -6.75868e-014
lhumerus -84.2522 -27.3083 97.7385
lradius 75.9498
lwrist 10.3897
lhand -43.8898 -42.0098
lfingers 7.12502
lthumb -16.7151 -12.7094
rfemur 8.71469 0.318006 25.4769
rtibia 30.1878
rfoot 339.149 0.387497
rtoes -19.7542
lfemur -67.4586 13.907 -10.8148
ltibia 88.9338
lfoot 257.417 77.2551
ltoes -6.64876
